<?xml version="1.0" standalone="no"?><!DOCTYPE svg PUBLIC "-//W3C//DTD SVG 1.1//EN" "http://www.w3.org/Graphics/SVG/1.1/DTD/svg11.dtd"><svg class="icon" width="200px" height="200.00px" viewBox="0 0 1024 1024" version="1.1" xmlns="http://www.w3.org/2000/svg"><path d="M512 102c-226.415 0-410 183.585-410 410s183.585 410 410 410 410-183.585 410-410-183.585-410-410-410z" fill="#7ADECA" /><path d="M307 428.719c0-24.261 19.667-43.929 43.929-43.929 24.26 0 43.928 19.668 43.928 43.929 0 24.26-19.667 43.928-43.928 43.928-24.262 0-43.929-19.667-43.929-43.928z m322.143 0c0-24.261 19.667-43.929 43.928-43.929 24.262 0 43.929 19.668 43.929 43.929 0 24.26-19.667 43.928-43.929 43.928-24.26 0-43.928-19.667-43.928-43.928z m21.964 131.785c4.027 0 7.322 3.295 7.322 7.322v43.928c0 4.027-3.295 7.322-7.322 7.322H372.893c-4.027 0-7.322-3.295-7.322-7.322v-43.928c0-4.027 3.295-7.322 7.322-7.322h278.214z" fill="#10342D" /></svg>