<svg height="200" viewBox="0 0 1024 1024" width="200" xmlns="http://www.w3.org/2000/svg"><path d="m326.58 533.612a284.314 284.119 90 1 0 568.238 0 284.314 284.119 90 1 0 -568.238 0z" fill="#b8292d"/><path d="m444.147 143.127c182.801 0 287.86 83.129 300.704 247.275l.448 6.988 2.904 1.752c60.824 38.564 93.084 103.921 95.774 193.468l.184 12.36v235.37c0 24.601-19.933 44.54-44.516 44.54a44.504 44.504 0 0 1 -33.14-14.8c-28.764-32.091-47.556-43.761-49.046-43.12-37.788 16.271-83.24 24.167-136.151 24.167-132.724 0-219.42-50.71-250.306-152.757l-.91-3.23-8.105-2.142a303.868 303.868 0 0 1 -23.624-7.866l-11.237-4.55c-4.352-1.874-27.622 12.582-62.48 51.482a47.3 47.3 0 0 1 -35.226 15.738c-26.132 0-47.315-21.198-47.315-47.347v-274.687c0-187.397 106.36-282.641 302.042-282.641zm300.182 323.972-.174 1.874c-15.555 158.823-119.98 239.437-300.008 239.437-17.697 0-34.658-.763-50.88-2.3 28.79 60.378 90.293 89.538 188.04 89.538 45.86 0 83.986-6.623 114.24-19.649 27.707-11.93 56.879 1.585 91.89 35.703l1.276 1.267.007-207.999c0-61.823-14.92-107.045-44.391-137.87zm-300.182-268.493c-166.351 0-246.602 71.863-246.602 227.162v253.924l6.795-6.826c38.42-38.091 70.313-54.584 99.569-45.173l5.136 1.93c14.894 6.416 31.372 11.522 49.437 15.301 25.474 5.33 54.047 8.007 85.665 8.007 162.482 0 242.822-68.56 246.47-216.463l.131-10.7c0-3.73-.047-7.412-.14-11.046l-.138-4.402c-5.285-144.488-85.427-211.714-246.323-211.714z" fill="#63101a"/></svg>